<svg xmlns="http://www.w3.org/2000/svg" viewBox="31 255 868 765" width="23" height="20">
  <path d="M500 1000L430 1000L430 512Q430 428 389.5000 382Q349 336 276 336L276 336Q232 336 197 357.5000Q162 379 142 415.5000Q122 452 122 499L122 499Q122 542 141 576Q160 610 192.5000 630Q225 650 265 650L265 650L265 710Q203 710 154.5000 683Q106 656 78.5000 608.5000Q51 561 51 499L51 499Q51 432 79 382Q107 332 158 303.5000Q209 275 276 275L276 275Q350 275 396 308Q442 341 465 413L465 413Q488 341 534.5000 308Q581 275 654 275L654 275Q721 275 771.5000 303.5000Q822 332 850.5000 382Q879 432 879 499L879 499Q879 561 851.5000 608.5000Q824 656 776 683Q728 710 665 710L665 710L665 650Q706 650 738.5000 630Q771 610 789.5000 576Q808 542 808 499L808 499Q808 452 788 415Q768 378 733.5000 357Q699 336 654 336L654 336Q581 336 540.5000 382.5000Q500 429 500 512L500 512L500 1000Z" fill="#222"/>
</svg>
