<svg xmlns="http://www.w3.org/2000/svg" viewBox="31 266 881 754" width="23" height="20">
  <path d="M258 682L258 682Q163 682 107 633Q51 584 51 503L51 503Q51 394 152 341L152 341Q256 286 482 286L482 286Q550 286 624 297Q698 308 768 327.5000Q838 347 892 372L892 372L892 442Q803 399 694.5000 376.5000Q586 354 482 354L482 354Q407 354 368 363L368 363Q409 370 437 408Q465 446 465 503L465 503Q465 584 409 633Q353 682 258 682ZM258 618L258 618Q317 618 352.5000 587Q388 556 388 503L388 503Q388 450 352.5000 419Q317 388 258 388L258 388Q197 388 162.5000 419Q128 450 128 503L128 503Q128 556 163.5000 587Q199 618 258 618ZM461 1000L461 1000Q389 1000 311 987.5000Q233 975 164.5000 955Q96 935 51 914L51 914L51 844Q140 885 246 908.5000Q352 932 461 932L461 932Q541 932 575 923L575 923Q535 918 506.5000 879.5000Q478 841 478 783L478 783Q478 703 534.5000 653.5000Q591 604 685 604L685 604Q780 604 836 653Q892 702 892 783L892 783Q892 889 792 944L792 944Q691 1000 461 1000ZM685 898L685 898Q746 898 780.5000 866.5000Q815 835 815 783L815 783Q815 731 781 699.5000Q747 668 685 668L685 668Q624 668 589.5000 699.5000Q555 731 555 783L555 783Q555 835 590 866.5000Q625 898 685 898Z" fill="#222"/>
</svg>
