<svg xmlns="http://www.w3.org/2000/svg" viewBox="31 266 904 946" width="19" height="20">
  <path d="M325 1192L325 1192L325 1137Q392 1137 444.5000 1096Q497 1055 543 961L543 961Q517 921 508 870Q499 819 499 759L499 759L499 483Q499 436 488 405Q477 374 451 337L451 337Q437 350 418 382Q399 414 377 457Q355 500 334.5000 548.5000Q314 597 296.5000 644Q279 691 269 729.5000Q259 768 259 792L259 792L259 1000L189 1000L189 637Q189 574 186 529Q183 484 175 456L175 456Q160 400 129.5000 375Q99 350 51 350L51 350L51 286Q156 286 205.5000 358.5000Q255 431 256 592L256 592L256 595Q265 559 285 511Q305 463 330 416Q355 369 377.5000 333.5000Q400 298 413 286L413 286L501 286Q519 307 534.5000 338.5000Q550 370 559.5000 403Q569 436 569 465L569 465L569 756Q569 855 588 894L588 894Q630 835 671 812.5000Q712 790 761 790L761 790Q831 790 873 825.5000Q915 861 915 923L915 923Q915 992 868.5000 1031Q822 1070 741 1070L741 1070Q698 1070 663.5000 1057.5000Q629 1045 589 1012L589 1012Q550 1097 480 1144.5000Q410 1192 325 1192ZM741 1008L741 1008Q792 1008 821.5000 984.5000Q851 961 851 923L851 923Q851 893 826.5000 871.5000Q802 850 762 850L762 850Q724 850 689 873.5000Q654 897 620 951L620 951Q638 974 673.5000 991Q709 1008 741 1008Z" fill="#222"/>
</svg>
