<svg xmlns="http://www.w3.org/2000/svg" viewBox="31 266 701 976" width="14" height="20">
  <path d="M619 1222L619 1222Q553 1222 514.5000 1180Q476 1138 476 1064L476 1064Q476 1017 491.5000 960.5000Q507 904 536 837L536 837Q595 701 595 575L595 575Q595 507 572 457.5000Q549 408 509.5000 381Q470 354 419 354L419 354Q344 354 298.5000 404Q253 454 253 541L253 541Q253 584 264 622L264 622Q311 628 347 655Q383 682 404 721.5000Q425 761 425 807L425 807Q425 858 399.5000 900.5000Q374 943 332 968.5000Q290 994 238 994L238 994Q187 994 144.5000 968.5000Q102 943 76.5000 900.5000Q51 858 51 807L51 807Q51 745 89 694.5000Q127 644 188 627L188 627Q176 588 176 542L176 542Q176 468 207 410.5000Q238 353 294 319.5000Q350 286 424 286L424 286Q499 286 555 321.5000Q611 357 641.5000 421Q672 485 672 572L672 572Q672 616 666.5000 661.5000Q661 707 645 761.5000Q629 816 599 888L599 888Q554 996 554 1063L554 1063Q554 1103 575 1125Q596 1147 630 1147L630 1147Q663 1147 688 1133L688 1133L712 1198Q670 1222 619 1222ZM238 918L238 918Q268 918 293.5000 903Q319 888 334 862.5000Q349 837 349 807L349 807Q349 777 334 751.5000Q319 726 293.5000 711Q268 696 238 696L238 696Q209 696 183.5000 711.5000Q158 727 142.5000 752Q127 777 127 807L127 807Q127 837 142 862Q157 887 182.5000 902.5000Q208 918 238 918Z" fill="#222"/>
</svg>
