<svg xmlns="http://www.w3.org/2000/svg" viewBox="31 284 876 736" width="24" height="20">
  <path d="M422 767L51 767L51 697L317 697Q280 668 257.5000 622.5000Q235 577 235 533L235 533Q235 469 266 417.5000Q297 366 350.5000 335Q404 304 469 304L469 304Q534 304 587 335Q640 366 671.5000 417.5000Q703 469 703 533L703 533Q703 576 681.5000 621Q660 666 621 697L621 697L887 697L887 767L516 767L516 690Q567 673 600 629Q633 585 633 533L633 533Q633 486 611.5000 449Q590 412 553 390.5000Q516 369 469 369L469 369Q422 369 385 391Q348 413 326.5000 450Q305 487 305 533L305 533Q305 586 338.5000 630Q372 674 422 690L422 690L422 767ZM886 1000L51 1000L51 930L886 930L886 1000Z" fill="#222"/>
</svg>
