<svg xmlns="http://www.w3.org/2000/svg" viewBox="31 266 892 945" width="19" height="20">
  <path d="M903 1087L767 1191L786 1118L741 1118Q668 1118 625 1088Q582 1058 563 993.5000Q544 929 544 824L544 824L544 468Q544 432 536 395.5000Q528 359 514 337L514 337Q500 349 480 375.5000Q460 402 440.5000 434Q421 466 406.5000 494.5000Q392 523 390 538L390 538L390 1000L320 1000L320 483Q320 446 313 409Q306 372 290 337L290 337Q276 349 256 375.5000Q236 402 216.5000 434Q197 466 182.5000 494.5000Q168 523 166 538L166 538L166 1000L96 1000L96 475Q96 404 51 286L51 286L104 286Q118 308 132.5000 342.5000Q147 377 160 425L160 425Q169 408 187.5000 382Q206 356 227 329.5000Q248 303 266 286L266 286L325 286Q343 312 359.5000 352.5000Q376 393 382 425L382 425Q391 407 410 381.5000Q429 356 451.5000 330Q474 304 492 286L492 286L551 286Q585 332 599.5000 377Q614 422 614 472L614 472L614 824Q614 913 626.5000 963.5000Q639 1014 667 1035Q695 1056 741 1056L741 1056L786 1056L767 983L903 1087Z" fill="#222"/>
</svg>
