<svg xmlns="http://www.w3.org/2000/svg" viewBox="31 236 808 797" width="20" height="20">
  <path d="M435 1013L435 1013Q382 1013 335 992.5000Q288 972 252.5000 936.5000Q217 901 196.5000 854Q176 807 176 754L176 754Q176 684 210.5000 624.5000Q245 565 305 530L305 530Q237 485 204 420L204 420Q181 375 162 353Q143 331 118 324Q93 317 51 317L51 317L51 256Q96 256 135.5000 261Q175 266 203 295L203 295Q217 309 229 325.5000Q241 342 251 362L251 362Q271 400 296 433.5000Q321 467 356 481L356 481Q393 495 435 495L435 495Q476 495 513.5000 478Q551 461 576 429L576 429Q589 412 600 395.5000Q611 379 620 361L620 361Q638 325 668 295Q698 265 738 261L738 261Q758 259 778.5000 257.5000Q799 256 819 256L819 256L819 317Q778 317 753 324Q728 331 709 352.5000Q690 374 667 419L667 419Q633 484 564 530L564 530Q625 565 659.5000 624.5000Q694 684 694 754L694 754Q694 808 673.5000 855Q653 902 617.5000 937.5000Q582 973 535 993Q488 1013 435 1013ZM435 939L435 939Q486 939 528 914Q570 889 595 846.5000Q620 804 620 754L620 754Q620 703 595 661Q570 619 528 594Q486 569 435 569L435 569Q385 569 342.5000 594Q300 619 275 661Q250 703 250 754L250 754Q250 804 275 846.5000Q300 889 342.5000 914Q385 939 435 939Z" fill="#222"/>
</svg>
