<svg xmlns="http://www.w3.org/2000/svg" viewBox="31 266 806 961" width="17" height="20">
  <path d="M690 1207L615 1207Q575 1175 557 1091L557 1091Q479 1133 404 1145L404 1145L404 1081Q479 1069 547 1029L547 1029Q544 997 544 962L544 962L544 468Q544 432 536 395.5000Q528 359 514 337L514 337Q500 349 480 375.5000Q460 402 440.5000 434Q421 466 406.5000 494.5000Q392 523 390 538L390 538L390 1000L320 1000L320 483Q320 446 313 409Q306 372 290 337L290 337Q276 349 256 375.5000Q236 402 216.5000 434Q197 466 182.5000 494.5000Q168 523 166 538L166 538L166 1000L96 1000L96 475Q96 404 51 286L51 286L104 286Q118 308 132.5000 342.5000Q147 377 160 425L160 425Q169 408 187.5000 382Q206 356 227 329.5000Q248 303 266 286L266 286L325 286Q343 312 359.5000 352.5000Q376 393 382 425L382 425Q391 407 410 381.5000Q429 356 451.5000 330Q474 304 492 286L492 286L551 286Q585 332 599.5000 377Q614 422 614 472L614 472L614 555Q627 529 651 500Q675 471 695 455L695 455L753 455Q782 489 799.5000 550.5000Q817 612 817 687L817 687Q817 796 767 890Q717 984 621 1052L621 1052Q628 1097 644 1134.5000Q660 1172 690 1207L690 1207ZM614 661L614 980Q678 924 712.5000 848.5000Q747 773 747 687L747 687Q747 572 715 506L715 506Q699 522 678 551.5000Q657 581 639.5000 611.5000Q622 642 614 661L614 661Z" fill="#222"/>
</svg>
