<svg xmlns="http://www.w3.org/2000/svg" viewBox="0 0 400 600" width="400" height="600">
  <rect width="400" height="600" fill="#333"/>
  <line x1="158.2" y1="535.5" x2="154.2" y2="534.7" stroke="#99CCFF" stroke-width="12" stroke-linecap="round"/>
  <line x1="154.2" y1="534.7" x2="150.3" y2="533.8" stroke="#99CCFF" stroke-width="12" stroke-linecap="round"/>
  <line x1="150.3" y1="533.8" x2="146.3" y2="532.8" stroke="#99CCFF" stroke-width="12" stroke-linecap="round"/>
  <line x1="146.3" y1="532.8" x2="142.5" y2="531.8" stroke="#99CCFF" stroke-width="12" stroke-linecap="round"/>
  <line x1="142.5" y1="531.8" x2="138.7" y2="530.7" stroke="#99CCFF" stroke-width="12" stroke-linecap="round"/>
  <line x1="138.7" y1="530.7" x2="134.9" y2="529.5" stroke="#99CCFF" stroke-width="12" stroke-linecap="round"/>
  <line x1="134.9" y1="529.5" x2="131.2" y2="528.3" stroke="#99CCFF" stroke-width="12" stroke-linecap="round"/>
  <line x1="131.2" y1="528.3" x2="127.6" y2="526.9" stroke="#99CCFF" stroke-width="12" stroke-linecap="round"/>
  <line x1="127.6" y1="526.9" x2="124.0" y2="525.6" stroke="#99CCFF" stroke-width="12" stroke-linecap="round"/>
  <line x1="124.0" y1="525.6" x2="120.5" y2="524.1" stroke="#99CCFF" stroke-width="12" stroke-linecap="round"/>
  <line x1="120.5" y1="524.1" x2="117.1" y2="522.6" stroke="#99CCFF" stroke-width="12" stroke-linecap="round"/>
  <line x1="117.1" y1="522.6" x2="113.8" y2="521.0" stroke="#99CCFF" stroke-width="12" stroke-linecap="round"/>
  <line x1="113.8" y1="521.0" x2="110.5" y2="519.4" stroke="#99CCFF" stroke-width="12" stroke-linecap="round"/>
  <line x1="110.5" y1="519.4" x2="107.3" y2="517.7" stroke="#99CCFF" stroke-width="12" stroke-linecap="round"/>
  <line x1="107.3" y1="517.7" x2="104.2" y2="515.9" stroke="#99CCFF" stroke-width="12" stroke-linecap="round"/>
  <line x1="104.2" y1="515.9" x2="101.2" y2="514.1" stroke="#99CCFF" stroke-width="12" stroke-linecap="round"/>
  <line x1="101.2" y1="514.1" x2="98.3" y2="512.2" stroke="#99CCFF" stroke-width="12" stroke-linecap="round"/>
  <line x1="98.3" y1="512.2" x2="95.5" y2="510.2" stroke="#99CCFF" stroke-width="12" stroke-linecap="round"/>
  <line x1="95.5" y1="510.2" x2="92.8" y2="508.2" stroke="#99CCFF" stroke-width="12" stroke-linecap="round"/>
  <line x1="92.8" y1="508.2" x2="90.2" y2="506.1" stroke="#66CCFF" stroke-width="12" stroke-linecap="round"/>
  <line x1="90.2" y1="506.1" x2="87.6" y2="504.0" stroke="#66CCFF" stroke-width="12" stroke-linecap="round"/>
  <line x1="87.6" y1="504.0" x2="85.2" y2="501.8" stroke="#66CCFF" stroke-width="12" stroke-linecap="round"/>
  <line x1="85.2" y1="501.8" x2="82.9" y2="499.5" stroke="#66CCFF" stroke-width="12" stroke-linecap="round"/>
  <line x1="82.9" y1="499.5" x2="80.7" y2="497.2" stroke="#66CCFF" stroke-width="12" stroke-linecap="round"/>
  <line x1="80.7" y1="497.2" x2="78.5" y2="494.8" stroke="#66CCFF" stroke-width="12" stroke-linecap="round"/>
  <line x1="78.5" y1="494.8" x2="76.5" y2="492.3" stroke="#66CCFF" stroke-width="12" stroke-linecap="round"/>
  <line x1="76.5" y1="492.3" x2="74.7" y2="489.8" stroke="#66CCFF" stroke-width="12" stroke-linecap="round"/>
  <line x1="74.7" y1="489.8" x2="72.9" y2="487.3" stroke="#66CCFF" stroke-width="12" stroke-linecap="round"/>
  <line x1="72.9" y1="487.3" x2="71.2" y2="484.7" stroke="#66CCFF" stroke-width="12" stroke-linecap="round"/>
  <line x1="71.2" y1="484.7" x2="69.6" y2="482.0" stroke="#66CCFF" stroke-width="12" stroke-linecap="round"/>
  <line x1="69.6" y1="482.0" x2="68.2" y2="479.3" stroke="#66CCFF" stroke-width="12" stroke-linecap="round"/>
  <line x1="68.2" y1="479.3" x2="66.9" y2="476.5" stroke="#66CCFF" stroke-width="12" stroke-linecap="round"/>
  <line x1="66.9" y1="476.5" x2="65.7" y2="473.7" stroke="#66CCFF" stroke-width="12" stroke-linecap="round"/>
  <line x1="65.7" y1="473.7" x2="64.6" y2="470.8" stroke="#66CCFF" stroke-width="12" stroke-linecap="round"/>
  <line x1="64.6" y1="470.8" x2="63.6" y2="467.9" stroke="#66CCFF" stroke-width="12" stroke-linecap="round"/>
  <line x1="63.6" y1="467.9" x2="62.7" y2="464.9" stroke="#66CCFF" stroke-width="12" stroke-linecap="round"/>
  <line x1="62.7" y1="464.9" x2="62.0" y2="461.9" stroke="#66CCFF" stroke-width="12" stroke-linecap="round"/>
  <line x1="62.0" y1="461.9" x2="61.4" y2="458.8" stroke="#66CCFF" stroke-width="12" stroke-linecap="round"/>
  <line x1="61.4" y1="458.8" x2="60.9" y2="455.7" stroke="#66CCFF" stroke-width="12" stroke-linecap="round"/>
  <line x1="60.9" y1="455.7" x2="60.5" y2="452.5" stroke="#66CCFF" stroke-width="12" stroke-linecap="round"/>
  <line x1="60.5" y1="452.5" x2="60.2" y2="449.3" stroke="#66CCFF" stroke-width="12" stroke-linecap="round"/>
  <line x1="60.2" y1="449.3" x2="60.0" y2="446.0" stroke="#66CCFF" stroke-width="12" stroke-linecap="round"/>
  <line x1="60.0" y1="446.0" x2="60.0" y2="442.7" stroke="#66CCFF" stroke-width="12" stroke-linecap="round"/>
  <line x1="60.0" y1="442.7" x2="60.1" y2="439.4" stroke="#66CCFF" stroke-width="12" stroke-linecap="round"/>
  <line x1="60.1" y1="439.4" x2="60.3" y2="436.0" stroke="#66CCFF" stroke-width="12" stroke-linecap="round"/>
  <line x1="60.3" y1="436.0" x2="60.6" y2="432.6" stroke="#66CCFF" stroke-width="12" stroke-linecap="round"/>
  <line x1="60.6" y1="432.6" x2="61.0" y2="429.1" stroke="#66CCFF" stroke-width="12" stroke-linecap="round"/>
  <line x1="61.0" y1="429.1" x2="61.5" y2="425.6" stroke="#66CCFF" stroke-width="12" stroke-linecap="round"/>
  <line x1="61.5" y1="425.6" x2="62.1" y2="422.1" stroke="#66CCFF" stroke-width="12" stroke-linecap="round"/>
  <line x1="62.1" y1="422.1" x2="62.9" y2="418.5" stroke="#66FFFF" stroke-width="12" stroke-linecap="round"/>
  <line x1="62.9" y1="418.5" x2="63.7" y2="414.9" stroke="#66FFFF" stroke-width="12" stroke-linecap="round"/>
  <line x1="63.7" y1="414.9" x2="64.6" y2="411.3" stroke="#66FFFF" stroke-width="12" stroke-linecap="round"/>
  <line x1="64.6" y1="411.3" x2="65.7" y2="407.6" stroke="#66FFFF" stroke-width="12" stroke-linecap="round"/>
  <line x1="65.7" y1="407.6" x2="66.8" y2="403.9" stroke="#66FFFF" stroke-width="12" stroke-linecap="round"/>
  <line x1="66.8" y1="403.9" x2="68.1" y2="400.1" stroke="#66FFFF" stroke-width="12" stroke-linecap="round"/>
  <line x1="68.1" y1="400.1" x2="69.4" y2="396.4" stroke="#66FFFF" stroke-width="12" stroke-linecap="round"/>
  <line x1="69.4" y1="396.4" x2="70.9" y2="392.6" stroke="#66FFFF" stroke-width="12" stroke-linecap="round"/>
  <line x1="70.9" y1="392.6" x2="72.4" y2="388.7" stroke="#66FFFF" stroke-width="12" stroke-linecap="round"/>
  <line x1="72.4" y1="388.7" x2="74.0" y2="384.9" stroke="#66FFFF" stroke-width="12" stroke-linecap="round"/>
  <line x1="74.0" y1="384.9" x2="75.7" y2="381.0" stroke="#66FFFF" stroke-width="12" stroke-linecap="round"/>
  <line x1="75.7" y1="381.0" x2="77.5" y2="377.1" stroke="#66FFFF" stroke-width="12" stroke-linecap="round"/>
  <line x1="77.5" y1="377.1" x2="79.4" y2="373.2" stroke="#66FFFF" stroke-width="12" stroke-linecap="round"/>
  <line x1="79.4" y1="373.2" x2="81.4" y2="369.2" stroke="#66FFFF" stroke-width="12" stroke-linecap="round"/>
  <line x1="81.4" y1="369.2" x2="83.4" y2="365.3" stroke="#66FFFF" stroke-width="12" stroke-linecap="round"/>
  <line x1="83.4" y1="365.3" x2="85.5" y2="361.3" stroke="#66FFFF" stroke-width="12" stroke-linecap="round"/>
  <line x1="85.5" y1="361.3" x2="87.7" y2="357.3" stroke="#66FFFF" stroke-width="12" stroke-linecap="round"/>
  <line x1="87.7" y1="357.3" x2="89.9" y2="353.3" stroke="#66FFFF" stroke-width="12" stroke-linecap="round"/>
  <line x1="89.9" y1="353.3" x2="92.2" y2="349.2" stroke="#66FFFF" stroke-width="12" stroke-linecap="round"/>
  <line x1="92.2" y1="349.2" x2="94.6" y2="345.2" stroke="#66FFFF" stroke-width="12" stroke-linecap="round"/>
  <line x1="94.6" y1="345.2" x2="97.0" y2="341.1" stroke="#66FFFF" stroke-width="12" stroke-linecap="round"/>
  <line x1="97.0" y1="341.1" x2="99.5" y2="337.0" stroke="#66FFFF" stroke-width="12" stroke-linecap="round"/>
  <line x1="99.5" y1="337.0" x2="102.0" y2="332.9" stroke="#66FFFF" stroke-width="12" stroke-linecap="round"/>
  <line x1="102.0" y1="332.9" x2="104.6" y2="328.9" stroke="#66FFFF" stroke-width="12" stroke-linecap="round"/>
  <line x1="104.6" y1="328.9" x2="107.2" y2="324.7" stroke="#66FFFF" stroke-width="12" stroke-linecap="round"/>
  <line x1="107.2" y1="324.7" x2="109.9" y2="320.6" stroke="#66FFFF" stroke-width="12" stroke-linecap="round"/>
  <line x1="109.9" y1="320.6" x2="112.6" y2="316.5" stroke="#66FFFF" stroke-width="12" stroke-linecap="round"/>
  <line x1="112.6" y1="316.5" x2="115.4" y2="312.4" stroke="#66FFFF" stroke-width="12" stroke-linecap="round"/>
  <line x1="115.4" y1="312.4" x2="118.1" y2="308.3" stroke="#66FFFF" stroke-width="12" stroke-linecap="round"/>
  <line x1="118.1" y1="308.3" x2="120.9" y2="304.1" stroke="#66FFFF" stroke-width="12" stroke-linecap="round"/>
  <line x1="120.9" y1="304.1" x2="123.7" y2="300.0" stroke="#99FFCC" stroke-width="12" stroke-linecap="round"/>
  <line x1="123.7" y1="300.0" x2="126.6" y2="295.9" stroke="#99FFCC" stroke-width="12" stroke-linecap="round"/>
  <line x1="126.6" y1="295.9" x2="129.4" y2="291.7" stroke="#99FFCC" stroke-width="12" stroke-linecap="round"/>
  <line x1="129.4" y1="291.7" x2="132.3" y2="287.6" stroke="#99FFCC" stroke-width="12" stroke-linecap="round"/>
  <line x1="132.3" y1="287.6" x2="135.2" y2="283.5" stroke="#99FFCC" stroke-width="12" stroke-linecap="round"/>
  <line x1="135.2" y1="283.5" x2="138.1" y2="279.4" stroke="#99FFCC" stroke-width="12" stroke-linecap="round"/>
  <line x1="138.1" y1="279.4" x2="141.0" y2="275.3" stroke="#99FFCC" stroke-width="12" stroke-linecap="round"/>
  <line x1="141.0" y1="275.3" x2="143.9" y2="271.1" stroke="#99FFCC" stroke-width="12" stroke-linecap="round"/>
  <line x1="143.9" y1="271.1" x2="146.7" y2="267.1" stroke="#99FFCC" stroke-width="12" stroke-linecap="round"/>
  <line x1="146.7" y1="267.1" x2="149.6" y2="263.0" stroke="#99FFCC" stroke-width="12" stroke-linecap="round"/>
  <line x1="149.6" y1="263.0" x2="152.5" y2="258.9" stroke="#99FFCC" stroke-width="12" stroke-linecap="round"/>
  <line x1="152.5" y1="258.9" x2="155.3" y2="254.8" stroke="#99FFCC" stroke-width="12" stroke-linecap="round"/>
  <line x1="155.3" y1="254.8" x2="158.1" y2="250.8" stroke="#99FFCC" stroke-width="12" stroke-linecap="round"/>
  <line x1="158.1" y1="250.8" x2="161.0" y2="246.7" stroke="#99FFCC" stroke-width="12" stroke-linecap="round"/>
  <line x1="161.0" y1="246.7" x2="163.7" y2="242.7" stroke="#99FFCC" stroke-width="12" stroke-linecap="round"/>
  <line x1="163.7" y1="242.7" x2="166.5" y2="238.7" stroke="#99FFCC" stroke-width="12" stroke-linecap="round"/>
  <line x1="166.5" y1="238.7" x2="169.2" y2="234.7" stroke="#99FFCC" stroke-width="12" stroke-linecap="round"/>
  <line x1="169.2" y1="234.7" x2="171.9" y2="230.8" stroke="#99FFCC" stroke-width="12" stroke-linecap="round"/>
  <line x1="171.9" y1="230.8" x2="174.5" y2="226.8" stroke="#99FFCC" stroke-width="12" stroke-linecap="round"/>
  <line x1="174.5" y1="226.8" x2="177.2" y2="222.9" stroke="#99FFCC" stroke-width="12" stroke-linecap="round"/>
  <line x1="177.2" y1="222.9" x2="179.7" y2="219.0" stroke="#99FFCC" stroke-width="12" stroke-linecap="round"/>
  <line x1="179.7" y1="219.0" x2="182.2" y2="215.1" stroke="#99FFCC" stroke-width="12" stroke-linecap="round"/>
  <line x1="182.2" y1="215.1" x2="184.7" y2="211.3" stroke="#99FFCC" stroke-width="12" stroke-linecap="round"/>
  <line x1="184.7" y1="211.3" x2="187.1" y2="207.4" stroke="#99FFCC" stroke-width="12" stroke-linecap="round"/>
  <line x1="187.1" y1="207.4" x2="189.5" y2="203.6" stroke="#99FFCC" stroke-width="12" stroke-linecap="round"/>
  <line x1="189.5" y1="203.6" x2="191.8" y2="199.9" stroke="#99FFCC" stroke-width="12" stroke-linecap="round"/>
  <line x1="191.8" y1="199.9" x2="194.0" y2="196.1" stroke="#99FFCC" stroke-width="12" stroke-linecap="round"/>
  <line x1="194.0" y1="196.1" x2="196.2" y2="192.4" stroke="#99FFCC" stroke-width="12" stroke-linecap="round"/>
  <line x1="196.2" y1="192.4" x2="198.3" y2="188.7" stroke="#99FFCC" stroke-width="12" stroke-linecap="round"/>
  <line x1="198.3" y1="188.7" x2="200.4" y2="185.1" stroke="#99FFCC" stroke-width="12" stroke-linecap="round"/>
  <line x1="200.4" y1="185.1" x2="202.4" y2="181.5" stroke="#99FFCC" stroke-width="12" stroke-linecap="round"/>
  <line x1="202.4" y1="181.5" x2="204.3" y2="177.9" stroke="#99FF99" stroke-width="12" stroke-linecap="round"/>
  <line x1="204.3" y1="177.9" x2="206.1" y2="174.4" stroke="#99FF99" stroke-width="12" stroke-linecap="round"/>
  <line x1="206.1" y1="174.4" x2="207.9" y2="170.9" stroke="#99FF99" stroke-width="12" stroke-linecap="round"/>
  <line x1="207.9" y1="170.9" x2="209.5" y2="167.4" stroke="#99FF99" stroke-width="12" stroke-linecap="round"/>
  <line x1="209.5" y1="167.4" x2="211.1" y2="164.0" stroke="#99FF99" stroke-width="12" stroke-linecap="round"/>
  <line x1="211.1" y1="164.0" x2="212.7" y2="160.6" stroke="#99FF99" stroke-width="12" stroke-linecap="round"/>
  <line x1="212.7" y1="160.6" x2="214.1" y2="157.3" stroke="#99FF99" stroke-width="12" stroke-linecap="round"/>
  <line x1="214.1" y1="157.3" x2="215.5" y2="154.0" stroke="#99FF99" stroke-width="12" stroke-linecap="round"/>
  <line x1="215.5" y1="154.0" x2="216.8" y2="150.7" stroke="#99FF99" stroke-width="12" stroke-linecap="round"/>
  <line x1="216.8" y1="150.7" x2="218.0" y2="147.5" stroke="#99FF99" stroke-width="12" stroke-linecap="round"/>
  <line x1="218.0" y1="147.5" x2="219.1" y2="144.3" stroke="#99FF99" stroke-width="12" stroke-linecap="round"/>
  <line x1="219.1" y1="144.3" x2="220.1" y2="141.2" stroke="#99FF99" stroke-width="12" stroke-linecap="round"/>
  <line x1="220.1" y1="141.2" x2="221.0" y2="138.1" stroke="#99FF99" stroke-width="12" stroke-linecap="round"/>
  <line x1="221.0" y1="138.1" x2="221.9" y2="135.1" stroke="#99FF99" stroke-width="12" stroke-linecap="round"/>
  <line x1="221.9" y1="135.1" x2="222.6" y2="132.1" stroke="#99FF99" stroke-width="12" stroke-linecap="round"/>
  <line x1="222.6" y1="132.1" x2="223.3" y2="129.2" stroke="#99FF99" stroke-width="12" stroke-linecap="round"/>
  <line x1="223.3" y1="129.2" x2="223.9" y2="126.3" stroke="#99FF99" stroke-width="12" stroke-linecap="round"/>
  <line x1="223.9" y1="126.3" x2="224.4" y2="123.5" stroke="#99FF99" stroke-width="12" stroke-linecap="round"/>
  <line x1="224.4" y1="123.5" x2="224.8" y2="120.7" stroke="#99FF99" stroke-width="12" stroke-linecap="round"/>
  <line x1="224.8" y1="120.7" x2="225.1" y2="118.0" stroke="#99FF99" stroke-width="12" stroke-linecap="round"/>
  <line x1="225.1" y1="118.0" x2="225.3" y2="115.3" stroke="#99FF99" stroke-width="12" stroke-linecap="round"/>
  <line x1="225.3" y1="115.3" x2="225.5" y2="112.7" stroke="#99FF99" stroke-width="12" stroke-linecap="round"/>
  <line x1="225.5" y1="112.7" x2="225.5" y2="110.2" stroke="#99FF99" stroke-width="12" stroke-linecap="round"/>
  <line x1="225.5" y1="110.2" x2="225.5" y2="107.7" stroke="#99FF99" stroke-width="12" stroke-linecap="round"/>
  <line x1="225.5" y1="107.7" x2="225.4" y2="105.2" stroke="#99FF99" stroke-width="12" stroke-linecap="round"/>
  <line x1="225.4" y1="105.2" x2="225.2" y2="102.8" stroke="#99FF99" stroke-width="12" stroke-linecap="round"/>
  <line x1="225.2" y1="102.8" x2="224.9" y2="100.5" stroke="#99FF99" stroke-width="12" stroke-linecap="round"/>
  <line x1="224.9" y1="100.5" x2="224.5" y2="98.2" stroke="#99FF99" stroke-width="12" stroke-linecap="round"/>
  <line x1="224.5" y1="98.2" x2="224.1" y2="96.0" stroke="#99FF99" stroke-width="12" stroke-linecap="round"/>
  <line x1="224.1" y1="96.0" x2="223.6" y2="93.9" stroke="#99FF99" stroke-width="12" stroke-linecap="round"/>
  <line x1="223.6" y1="93.9" x2="222.9" y2="91.8" stroke="#CCFF99" stroke-width="12" stroke-linecap="round"/>
  <line x1="222.9" y1="91.8" x2="222.3" y2="89.8" stroke="#CCFF99" stroke-width="12" stroke-linecap="round"/>
  <line x1="222.3" y1="89.8" x2="221.5" y2="87.8" stroke="#CCFF99" stroke-width="12" stroke-linecap="round"/>
  <line x1="221.5" y1="87.8" x2="220.7" y2="85.9" stroke="#CCFF99" stroke-width="12" stroke-linecap="round"/>
  <line x1="220.7" y1="85.9" x2="219.8" y2="84.1" stroke="#CCFF99" stroke-width="12" stroke-linecap="round"/>
  <line x1="219.8" y1="84.1" x2="218.8" y2="82.3" stroke="#CCFF99" stroke-width="12" stroke-linecap="round"/>
  <line x1="218.8" y1="82.3" x2="217.7" y2="80.6" stroke="#CCFF99" stroke-width="12" stroke-linecap="round"/>
  <line x1="217.7" y1="80.6" x2="216.6" y2="79.0" stroke="#CCFF99" stroke-width="12" stroke-linecap="round"/>
  <line x1="216.6" y1="79.0" x2="215.4" y2="77.4" stroke="#CCFF99" stroke-width="12" stroke-linecap="round"/>
  <line x1="215.4" y1="77.4" x2="214.2" y2="75.9" stroke="#CCFF99" stroke-width="12" stroke-linecap="round"/>
  <line x1="214.2" y1="75.9" x2="212.9" y2="74.4" stroke="#CCFF99" stroke-width="12" stroke-linecap="round"/>
  <line x1="212.9" y1="74.4" x2="211.5" y2="73.1" stroke="#CCFF99" stroke-width="12" stroke-linecap="round"/>
  <line x1="211.5" y1="73.1" x2="210.1" y2="71.7" stroke="#CCFF99" stroke-width="12" stroke-linecap="round"/>
  <line x1="210.1" y1="71.7" x2="208.6" y2="70.5" stroke="#CCFF99" stroke-width="12" stroke-linecap="round"/>
  <line x1="208.6" y1="70.5" x2="207.1" y2="69.3" stroke="#CCFF99" stroke-width="12" stroke-linecap="round"/>
  <line x1="207.1" y1="69.3" x2="205.6" y2="68.2" stroke="#CCFF99" stroke-width="12" stroke-linecap="round"/>
  <line x1="205.6" y1="68.2" x2="204.0" y2="67.2" stroke="#CCFF99" stroke-width="12" stroke-linecap="round"/>
  <line x1="204.0" y1="67.2" x2="202.3" y2="66.2" stroke="#CCFF99" stroke-width="12" stroke-linecap="round"/>
  <line x1="202.3" y1="66.2" x2="200.6" y2="65.3" stroke="#CCFF99" stroke-width="12" stroke-linecap="round"/>
  <line x1="200.6" y1="65.3" x2="198.9" y2="64.5" stroke="#CCFF99" stroke-width="12" stroke-linecap="round"/>
  <line x1="198.9" y1="64.5" x2="197.2" y2="63.7" stroke="#CCFF99" stroke-width="12" stroke-linecap="round"/>
  <line x1="197.2" y1="63.7" x2="195.4" y2="63.0" stroke="#CCFF99" stroke-width="12" stroke-linecap="round"/>
  <line x1="195.4" y1="63.0" x2="193.6" y2="62.4" stroke="#CCFF99" stroke-width="12" stroke-linecap="round"/>
  <line x1="193.6" y1="62.4" x2="191.8" y2="61.9" stroke="#CCFF99" stroke-width="12" stroke-linecap="round"/>
  <line x1="191.8" y1="61.9" x2="189.9" y2="61.4" stroke="#CCFF99" stroke-width="12" stroke-linecap="round"/>
  <line x1="189.9" y1="61.4" x2="188.0" y2="61.0" stroke="#CCFF99" stroke-width="12" stroke-linecap="round"/>
  <line x1="188.0" y1="61.0" x2="186.2" y2="60.6" stroke="#CCFF99" stroke-width="12" stroke-linecap="round"/>
  <line x1="186.2" y1="60.6" x2="184.3" y2="60.4" stroke="#CCFF99" stroke-width="12" stroke-linecap="round"/>
  <line x1="184.3" y1="60.4" x2="182.4" y2="60.2" stroke="#CCFF99" stroke-width="12" stroke-linecap="round"/>
  <line x1="182.4" y1="60.2" x2="180.5" y2="60.1" stroke="#CCFF99" stroke-width="12" stroke-linecap="round"/>
  <line x1="180.5" y1="60.1" x2="178.6" y2="60.0" stroke="#CCFF99" stroke-width="12" stroke-linecap="round"/>
  <line x1="178.6" y1="60.0" x2="176.7" y2="60.0" stroke="#FFFF99" stroke-width="12" stroke-linecap="round"/>
  <line x1="176.7" y1="60.0" x2="174.8" y2="60.1" stroke="#FFFF99" stroke-width="12" stroke-linecap="round"/>
  <line x1="174.8" y1="60.1" x2="172.9" y2="60.3" stroke="#FFFF99" stroke-width="12" stroke-linecap="round"/>
  <line x1="172.9" y1="60.3" x2="171.1" y2="60.5" stroke="#FFFF99" stroke-width="12" stroke-linecap="round"/>
  <line x1="171.1" y1="60.5" x2="169.2" y2="60.8" stroke="#FFFF99" stroke-width="12" stroke-linecap="round"/>
  <line x1="169.2" y1="60.8" x2="167.4" y2="61.2" stroke="#FFFF99" stroke-width="12" stroke-linecap="round"/>
  <line x1="167.4" y1="61.2" x2="165.6" y2="61.6" stroke="#FFFF99" stroke-width="12" stroke-linecap="round"/>
  <line x1="165.6" y1="61.6" x2="163.8" y2="62.1" stroke="#FFFF99" stroke-width="12" stroke-linecap="round"/>
  <line x1="163.8" y1="62.1" x2="162.1" y2="62.7" stroke="#FFFF99" stroke-width="12" stroke-linecap="round"/>
  <line x1="162.1" y1="62.7" x2="160.3" y2="63.4" stroke="#FFFF99" stroke-width="12" stroke-linecap="round"/>
  <line x1="160.3" y1="63.4" x2="158.7" y2="64.1" stroke="#FFFF99" stroke-width="12" stroke-linecap="round"/>
  <line x1="158.7" y1="64.1" x2="157.0" y2="64.9" stroke="#FFFF99" stroke-width="12" stroke-linecap="round"/>
  <line x1="157.0" y1="64.9" x2="155.4" y2="65.8" stroke="#FFFF99" stroke-width="12" stroke-linecap="round"/>
  <line x1="155.4" y1="65.8" x2="153.8" y2="66.7" stroke="#FFFF99" stroke-width="12" stroke-linecap="round"/>
  <line x1="153.8" y1="66.7" x2="152.3" y2="67.7" stroke="#FFFF99" stroke-width="12" stroke-linecap="round"/>
  <line x1="152.3" y1="67.7" x2="150.9" y2="68.8" stroke="#FFFF99" stroke-width="12" stroke-linecap="round"/>
  <line x1="150.9" y1="68.8" x2="149.5" y2="69.9" stroke="#FFFF99" stroke-width="12" stroke-linecap="round"/>
  <line x1="149.5" y1="69.9" x2="148.1" y2="71.1" stroke="#FFFF99" stroke-width="12" stroke-linecap="round"/>
  <line x1="148.1" y1="71.1" x2="146.8" y2="72.4" stroke="#FFFF99" stroke-width="12" stroke-linecap="round"/>
  <line x1="146.8" y1="72.4" x2="145.6" y2="73.7" stroke="#FFFF99" stroke-width="12" stroke-linecap="round"/>
  <line x1="145.6" y1="73.7" x2="144.4" y2="75.1" stroke="#FFFF99" stroke-width="12" stroke-linecap="round"/>
  <line x1="144.4" y1="75.1" x2="143.3" y2="76.6" stroke="#FFFF99" stroke-width="12" stroke-linecap="round"/>
  <line x1="143.3" y1="76.6" x2="142.3" y2="78.2" stroke="#FFFF99" stroke-width="12" stroke-linecap="round"/>
  <line x1="142.3" y1="78.2" x2="141.3" y2="79.8" stroke="#FFFF99" stroke-width="12" stroke-linecap="round"/>
  <line x1="141.3" y1="79.8" x2="140.4" y2="81.5" stroke="#FFFF99" stroke-width="12" stroke-linecap="round"/>
  <line x1="140.4" y1="81.5" x2="139.6" y2="83.2" stroke="#FFFF99" stroke-width="12" stroke-linecap="round"/>
  <line x1="139.6" y1="83.2" x2="138.8" y2="85.0" stroke="#FFFF99" stroke-width="12" stroke-linecap="round"/>
  <line x1="138.8" y1="85.0" x2="138.2" y2="86.9" stroke="#FFFF99" stroke-width="12" stroke-linecap="round"/>
  <line x1="138.2" y1="86.9" x2="137.6" y2="88.8" stroke="#FFFF99" stroke-width="12" stroke-linecap="round"/>
  <line x1="137.6" y1="88.8" x2="137.1" y2="90.8" stroke="#FFFF99" stroke-width="12" stroke-linecap="round"/>
  <line x1="137.1" y1="90.8" x2="136.7" y2="92.8" stroke="#FFCC99" stroke-width="12" stroke-linecap="round"/>
  <line x1="136.7" y1="92.8" x2="136.3" y2="95.0" stroke="#FFCC99" stroke-width="12" stroke-linecap="round"/>
  <line x1="136.3" y1="95.0" x2="136.1" y2="97.1" stroke="#FFCC99" stroke-width="12" stroke-linecap="round"/>
  <line x1="136.1" y1="97.1" x2="135.9" y2="99.4" stroke="#FFCC99" stroke-width="12" stroke-linecap="round"/>
  <line x1="135.9" y1="99.4" x2="135.9" y2="101.7" stroke="#FFCC99" stroke-width="12" stroke-linecap="round"/>
  <line x1="135.9" y1="101.7" x2="135.9" y2="104.0" stroke="#FFCC99" stroke-width="12" stroke-linecap="round"/>
  <line x1="135.9" y1="104.0" x2="136.0" y2="106.4" stroke="#FFCC99" stroke-width="12" stroke-linecap="round"/>
  <line x1="136.0" y1="106.4" x2="136.2" y2="108.9" stroke="#FFCC99" stroke-width="12" stroke-linecap="round"/>
  <line x1="136.2" y1="108.9" x2="136.5" y2="111.4" stroke="#FFCC99" stroke-width="12" stroke-linecap="round"/>
  <line x1="136.5" y1="111.4" x2="136.9" y2="114.0" stroke="#FFCC99" stroke-width="12" stroke-linecap="round"/>
  <line x1="136.9" y1="114.0" x2="137.4" y2="116.7" stroke="#FFCC99" stroke-width="12" stroke-linecap="round"/>
  <line x1="137.4" y1="116.7" x2="138.0" y2="119.4" stroke="#FFCC99" stroke-width="12" stroke-linecap="round"/>
  <line x1="138.0" y1="119.4" x2="138.6" y2="122.1" stroke="#FFCC99" stroke-width="12" stroke-linecap="round"/>
  <line x1="138.6" y1="122.1" x2="139.4" y2="124.9" stroke="#FFCC99" stroke-width="12" stroke-linecap="round"/>
  <line x1="139.4" y1="124.9" x2="140.3" y2="127.8" stroke="#FFCC99" stroke-width="12" stroke-linecap="round"/>
  <line x1="140.3" y1="127.8" x2="141.2" y2="130.7" stroke="#FFCC99" stroke-width="12" stroke-linecap="round"/>
  <line x1="141.2" y1="130.7" x2="142.3" y2="133.6" stroke="#FFCC99" stroke-width="12" stroke-linecap="round"/>
  <line x1="142.3" y1="133.6" x2="143.4" y2="136.6" stroke="#FFCC99" stroke-width="12" stroke-linecap="round"/>
  <line x1="143.4" y1="136.6" x2="144.6" y2="139.7" stroke="#FFCC99" stroke-width="12" stroke-linecap="round"/>
  <line x1="144.6" y1="139.7" x2="146.0" y2="142.8" stroke="#FFCC99" stroke-width="12" stroke-linecap="round"/>
  <line x1="146.0" y1="142.8" x2="147.4" y2="145.9" stroke="#FFCC99" stroke-width="12" stroke-linecap="round"/>
  <line x1="147.4" y1="145.9" x2="148.9" y2="149.1" stroke="#FFCC99" stroke-width="12" stroke-linecap="round"/>
  <line x1="148.9" y1="149.1" x2="150.5" y2="152.3" stroke="#FFCC99" stroke-width="12" stroke-linecap="round"/>
  <line x1="150.5" y1="152.3" x2="152.2" y2="155.6" stroke="#FFCC99" stroke-width="12" stroke-linecap="round"/>
  <line x1="152.2" y1="155.6" x2="154.0" y2="158.9" stroke="#FFCC99" stroke-width="12" stroke-linecap="round"/>
  <line x1="154.0" y1="158.9" x2="155.8" y2="162.3" stroke="#FFCC99" stroke-width="12" stroke-linecap="round"/>
  <line x1="155.8" y1="162.3" x2="157.8" y2="165.7" stroke="#FFCC99" stroke-width="12" stroke-linecap="round"/>
  <line x1="157.8" y1="165.7" x2="159.8" y2="169.1" stroke="#FFCC99" stroke-width="12" stroke-linecap="round"/>
  <line x1="159.8" y1="169.1" x2="161.9" y2="172.6" stroke="#FFCC99" stroke-width="12" stroke-linecap="round"/>
  <line x1="161.9" y1="172.6" x2="164.1" y2="176.1" stroke="#FFCC99" stroke-width="12" stroke-linecap="round"/>
  <line x1="164.1" y1="176.1" x2="166.4" y2="179.7" stroke="#FFCC99" stroke-width="12" stroke-linecap="round"/>
  <line x1="166.4" y1="179.7" x2="168.8" y2="183.3" stroke="#FF9999" stroke-width="12" stroke-linecap="round"/>
  <line x1="168.8" y1="183.3" x2="171.2" y2="186.9" stroke="#FF9999" stroke-width="12" stroke-linecap="round"/>
  <line x1="171.2" y1="186.9" x2="173.7" y2="190.6" stroke="#FF9999" stroke-width="12" stroke-linecap="round"/>
  <line x1="173.7" y1="190.6" x2="176.2" y2="194.3" stroke="#FF9999" stroke-width="12" stroke-linecap="round"/>
  <line x1="176.2" y1="194.3" x2="178.9" y2="198.0" stroke="#FF9999" stroke-width="12" stroke-linecap="round"/>
  <line x1="178.9" y1="198.0" x2="181.6" y2="201.8" stroke="#FF9999" stroke-width="12" stroke-linecap="round"/>
  <line x1="181.6" y1="201.8" x2="184.3" y2="205.5" stroke="#FF9999" stroke-width="12" stroke-linecap="round"/>
  <line x1="184.3" y1="205.5" x2="187.2" y2="209.3" stroke="#FF9999" stroke-width="12" stroke-linecap="round"/>
  <line x1="187.2" y1="209.3" x2="190.0" y2="213.2" stroke="#FF9999" stroke-width="12" stroke-linecap="round"/>
  <line x1="190.0" y1="213.2" x2="193.0" y2="217.1" stroke="#FF9999" stroke-width="12" stroke-linecap="round"/>
  <line x1="193.0" y1="217.1" x2="195.9" y2="220.9" stroke="#FF9999" stroke-width="12" stroke-linecap="round"/>
  <line x1="195.9" y1="220.9" x2="199.0" y2="224.9" stroke="#FF9999" stroke-width="12" stroke-linecap="round"/>
  <line x1="199.0" y1="224.9" x2="202.0" y2="228.8" stroke="#FF9999" stroke-width="12" stroke-linecap="round"/>
  <line x1="202.0" y1="228.8" x2="205.2" y2="232.7" stroke="#FF9999" stroke-width="12" stroke-linecap="round"/>
  <line x1="205.2" y1="232.7" x2="208.3" y2="236.7" stroke="#FF9999" stroke-width="12" stroke-linecap="round"/>
  <line x1="208.3" y1="236.7" x2="211.5" y2="240.7" stroke="#FF9999" stroke-width="12" stroke-linecap="round"/>
  <line x1="211.5" y1="240.7" x2="214.7" y2="244.7" stroke="#FF9999" stroke-width="12" stroke-linecap="round"/>
  <line x1="214.7" y1="244.7" x2="218.0" y2="248.8" stroke="#FF9999" stroke-width="12" stroke-linecap="round"/>
  <line x1="218.0" y1="248.8" x2="221.2" y2="252.8" stroke="#FF9999" stroke-width="12" stroke-linecap="round"/>
  <line x1="221.2" y1="252.8" x2="224.5" y2="256.9" stroke="#FF9999" stroke-width="12" stroke-linecap="round"/>
  <line x1="224.5" y1="256.9" x2="227.8" y2="260.9" stroke="#FF9999" stroke-width="12" stroke-linecap="round"/>
  <line x1="227.8" y1="260.9" x2="231.2" y2="265.0" stroke="#FF9999" stroke-width="12" stroke-linecap="round"/>
  <line x1="231.2" y1="265.0" x2="234.5" y2="269.1" stroke="#FF9999" stroke-width="12" stroke-linecap="round"/>
  <line x1="234.5" y1="269.1" x2="237.9" y2="273.2" stroke="#FF9999" stroke-width="12" stroke-linecap="round"/>
  <line x1="237.9" y1="273.2" x2="241.2" y2="277.3" stroke="#FF9999" stroke-width="12" stroke-linecap="round"/>
  <line x1="241.2" y1="277.3" x2="244.6" y2="281.4" stroke="#FF9999" stroke-width="12" stroke-linecap="round"/>
  <line x1="244.6" y1="281.4" x2="247.9" y2="285.5" stroke="#FF9999" stroke-width="12" stroke-linecap="round"/>
  <line x1="247.9" y1="285.5" x2="251.2" y2="289.7" stroke="#FF9999" stroke-width="12" stroke-linecap="round"/>
  <line x1="251.2" y1="289.7" x2="254.6" y2="293.8" stroke="#FF9999" stroke-width="12" stroke-linecap="round"/>
  <line x1="254.6" y1="293.8" x2="257.9" y2="297.9" stroke="#FF9999" stroke-width="12" stroke-linecap="round"/>
  <line x1="257.9" y1="297.9" x2="261.2" y2="302.1" stroke="#FF99CC" stroke-width="12" stroke-linecap="round"/>
  <line x1="261.2" y1="302.1" x2="264.5" y2="306.2" stroke="#FF99CC" stroke-width="12" stroke-linecap="round"/>
  <line x1="264.5" y1="306.2" x2="267.7" y2="310.3" stroke="#FF99CC" stroke-width="12" stroke-linecap="round"/>
  <line x1="267.7" y1="310.3" x2="270.9" y2="314.5" stroke="#FF99CC" stroke-width="12" stroke-linecap="round"/>
  <line x1="270.9" y1="314.5" x2="274.1" y2="318.6" stroke="#FF99CC" stroke-width="12" stroke-linecap="round"/>
  <line x1="274.1" y1="318.6" x2="277.3" y2="322.7" stroke="#FF99CC" stroke-width="12" stroke-linecap="round"/>
  <line x1="277.3" y1="322.7" x2="280.4" y2="326.8" stroke="#FF99CC" stroke-width="12" stroke-linecap="round"/>
  <line x1="280.4" y1="326.8" x2="283.4" y2="330.9" stroke="#FF99CC" stroke-width="12" stroke-linecap="round"/>
  <line x1="283.4" y1="330.9" x2="286.5" y2="335.0" stroke="#FF99CC" stroke-width="12" stroke-linecap="round"/>
  <line x1="286.5" y1="335.0" x2="289.4" y2="339.1" stroke="#FF99CC" stroke-width="12" stroke-linecap="round"/>
  <line x1="289.4" y1="339.1" x2="292.3" y2="343.1" stroke="#FF99CC" stroke-width="12" stroke-linecap="round"/>
  <line x1="292.3" y1="343.1" x2="295.2" y2="347.2" stroke="#FF99CC" stroke-width="12" stroke-linecap="round"/>
  <line x1="295.2" y1="347.2" x2="298.0" y2="351.2" stroke="#FF99CC" stroke-width="12" stroke-linecap="round"/>
  <line x1="298.0" y1="351.2" x2="300.7" y2="355.3" stroke="#FF99CC" stroke-width="12" stroke-linecap="round"/>
  <line x1="300.7" y1="355.3" x2="303.4" y2="359.3" stroke="#FF99CC" stroke-width="12" stroke-linecap="round"/>
  <line x1="303.4" y1="359.3" x2="306.0" y2="363.3" stroke="#FF99CC" stroke-width="12" stroke-linecap="round"/>
  <line x1="306.0" y1="363.3" x2="308.5" y2="367.3" stroke="#FF99CC" stroke-width="12" stroke-linecap="round"/>
  <line x1="308.5" y1="367.3" x2="310.9" y2="371.2" stroke="#FF99CC" stroke-width="12" stroke-linecap="round"/>
  <line x1="310.9" y1="371.2" x2="313.3" y2="375.1" stroke="#FF99CC" stroke-width="12" stroke-linecap="round"/>
  <line x1="313.3" y1="375.1" x2="315.6" y2="379.1" stroke="#FF99CC" stroke-width="12" stroke-linecap="round"/>
  <line x1="315.6" y1="379.1" x2="317.8" y2="382.9" stroke="#FF99CC" stroke-width="12" stroke-linecap="round"/>
  <line x1="317.8" y1="382.9" x2="319.9" y2="386.8" stroke="#FF99CC" stroke-width="12" stroke-linecap="round"/>
  <line x1="319.9" y1="386.8" x2="321.9" y2="390.7" stroke="#FF99CC" stroke-width="12" stroke-linecap="round"/>
  <line x1="321.9" y1="390.7" x2="323.8" y2="394.5" stroke="#FF99CC" stroke-width="12" stroke-linecap="round"/>
  <line x1="323.8" y1="394.5" x2="325.6" y2="398.2" stroke="#FF99CC" stroke-width="12" stroke-linecap="round"/>
  <line x1="325.6" y1="398.2" x2="327.3" y2="402.0" stroke="#FF99CC" stroke-width="12" stroke-linecap="round"/>
  <line x1="327.3" y1="402.0" x2="329.0" y2="405.7" stroke="#FF99CC" stroke-width="12" stroke-linecap="round"/>
  <line x1="329.0" y1="405.7" x2="330.5" y2="409.4" stroke="#FF99CC" stroke-width="12" stroke-linecap="round"/>
  <line x1="330.5" y1="409.4" x2="331.9" y2="413.1" stroke="#FF99CC" stroke-width="12" stroke-linecap="round"/>
  <line x1="331.9" y1="413.1" x2="333.2" y2="416.7" stroke="#FF99CC" stroke-width="12" stroke-linecap="round"/>
  <line x1="333.2" y1="416.7" x2="334.4" y2="420.3" stroke="#FF99FF" stroke-width="12" stroke-linecap="round"/>
  <line x1="334.4" y1="420.3" x2="335.5" y2="423.9" stroke="#FF99FF" stroke-width="12" stroke-linecap="round"/>
  <line x1="335.5" y1="423.9" x2="336.4" y2="427.4" stroke="#FF99FF" stroke-width="12" stroke-linecap="round"/>
  <line x1="336.4" y1="427.4" x2="337.3" y2="430.9" stroke="#FF99FF" stroke-width="12" stroke-linecap="round"/>
  <line x1="337.3" y1="430.9" x2="338.0" y2="434.3" stroke="#FF99FF" stroke-width="12" stroke-linecap="round"/>
  <line x1="338.0" y1="434.3" x2="338.7" y2="437.7" stroke="#FF99FF" stroke-width="12" stroke-linecap="round"/>
  <line x1="338.7" y1="437.7" x2="339.2" y2="441.1" stroke="#FF99FF" stroke-width="12" stroke-linecap="round"/>
  <line x1="339.2" y1="441.1" x2="339.6" y2="444.4" stroke="#FF99FF" stroke-width="12" stroke-linecap="round"/>
  <line x1="339.6" y1="444.4" x2="339.8" y2="447.7" stroke="#FF99FF" stroke-width="12" stroke-linecap="round"/>
  <line x1="339.8" y1="447.7" x2="340.0" y2="450.9" stroke="#FF99FF" stroke-width="12" stroke-linecap="round"/>
  <line x1="340.0" y1="450.9" x2="340.0" y2="454.1" stroke="#FF99FF" stroke-width="12" stroke-linecap="round"/>
  <line x1="340.0" y1="454.1" x2="339.9" y2="457.2" stroke="#FF99FF" stroke-width="12" stroke-linecap="round"/>
  <line x1="339.9" y1="457.2" x2="339.7" y2="460.3" stroke="#FF99FF" stroke-width="12" stroke-linecap="round"/>
  <line x1="339.7" y1="460.3" x2="339.3" y2="463.4" stroke="#FF99FF" stroke-width="12" stroke-linecap="round"/>
  <line x1="339.3" y1="463.4" x2="338.9" y2="466.4" stroke="#FF99FF" stroke-width="12" stroke-linecap="round"/>
  <line x1="338.9" y1="466.4" x2="338.3" y2="469.3" stroke="#FF99FF" stroke-width="12" stroke-linecap="round"/>
  <line x1="338.3" y1="469.3" x2="337.6" y2="472.2" stroke="#FF99FF" stroke-width="12" stroke-linecap="round"/>
  <line x1="337.6" y1="472.2" x2="336.8" y2="475.1" stroke="#FF99FF" stroke-width="12" stroke-linecap="round"/>
  <line x1="336.8" y1="475.1" x2="335.8" y2="477.9" stroke="#FF99FF" stroke-width="12" stroke-linecap="round"/>
  <line x1="335.8" y1="477.9" x2="334.7" y2="480.6" stroke="#FF99FF" stroke-width="12" stroke-linecap="round"/>
  <line x1="334.7" y1="480.6" x2="333.5" y2="483.3" stroke="#FF99FF" stroke-width="12" stroke-linecap="round"/>
  <line x1="333.5" y1="483.3" x2="332.2" y2="486.0" stroke="#FF99FF" stroke-width="12" stroke-linecap="round"/>
  <line x1="332.2" y1="486.0" x2="330.8" y2="488.6" stroke="#FF99FF" stroke-width="12" stroke-linecap="round"/>
  <line x1="330.8" y1="488.6" x2="329.2" y2="491.1" stroke="#FF99FF" stroke-width="12" stroke-linecap="round"/>
  <line x1="329.2" y1="491.1" x2="327.6" y2="493.6" stroke="#FF99FF" stroke-width="12" stroke-linecap="round"/>
  <line x1="327.6" y1="493.6" x2="325.8" y2="496.0" stroke="#FF99FF" stroke-width="12" stroke-linecap="round"/>
  <line x1="325.8" y1="496.0" x2="323.9" y2="498.3" stroke="#FF99FF" stroke-width="12" stroke-linecap="round"/>
  <line x1="323.9" y1="498.3" x2="321.9" y2="500.6" stroke="#FF99FF" stroke-width="12" stroke-linecap="round"/>
  <line x1="321.9" y1="500.6" x2="319.8" y2="502.9" stroke="#FF99FF" stroke-width="12" stroke-linecap="round"/>
  <line x1="319.8" y1="502.9" x2="317.5" y2="505.0" stroke="#FF99FF" stroke-width="12" stroke-linecap="round"/>
  <line x1="317.5" y1="505.0" x2="315.2" y2="507.2" stroke="#FF99FF" stroke-width="12" stroke-linecap="round"/>
  <line x1="315.2" y1="507.2" x2="312.7" y2="509.2" stroke="#CCCCFF" stroke-width="12" stroke-linecap="round"/>
  <line x1="312.7" y1="509.2" x2="310.2" y2="511.2" stroke="#CCCCFF" stroke-width="12" stroke-linecap="round"/>
  <line x1="310.2" y1="511.2" x2="307.5" y2="513.1" stroke="#CCCCFF" stroke-width="12" stroke-linecap="round"/>
  <line x1="307.5" y1="513.1" x2="304.8" y2="515.0" stroke="#CCCCFF" stroke-width="12" stroke-linecap="round"/>
  <line x1="304.8" y1="515.0" x2="301.9" y2="516.8" stroke="#CCCCFF" stroke-width="12" stroke-linecap="round"/>
  <line x1="301.9" y1="516.8" x2="299.0" y2="518.5" stroke="#CCCCFF" stroke-width="12" stroke-linecap="round"/>
  <line x1="299.0" y1="518.5" x2="296.0" y2="520.2" stroke="#CCCCFF" stroke-width="12" stroke-linecap="round"/>
  <line x1="296.0" y1="520.2" x2="292.9" y2="521.8" stroke="#CCCCFF" stroke-width="12" stroke-linecap="round"/>
  <line x1="292.9" y1="521.8" x2="289.7" y2="523.4" stroke="#CCCCFF" stroke-width="12" stroke-linecap="round"/>
  <line x1="289.7" y1="523.4" x2="286.4" y2="524.9" stroke="#CCCCFF" stroke-width="12" stroke-linecap="round"/>
  <line x1="286.4" y1="524.9" x2="283.0" y2="526.3" stroke="#CCCCFF" stroke-width="12" stroke-linecap="round"/>
  <line x1="283.0" y1="526.3" x2="279.6" y2="527.6" stroke="#CCCCFF" stroke-width="12" stroke-linecap="round"/>
  <line x1="279.6" y1="527.6" x2="276.0" y2="528.9" stroke="#CCCCFF" stroke-width="12" stroke-linecap="round"/>
  <line x1="276.0" y1="528.9" x2="272.4" y2="530.1" stroke="#CCCCFF" stroke-width="12" stroke-linecap="round"/>
  <line x1="272.4" y1="530.1" x2="268.8" y2="531.2" stroke="#CCCCFF" stroke-width="12" stroke-linecap="round"/>
  <line x1="268.8" y1="531.2" x2="265.1" y2="532.3" stroke="#CCCCFF" stroke-width="12" stroke-linecap="round"/>
  <line x1="265.1" y1="532.3" x2="261.3" y2="533.3" stroke="#CCCCFF" stroke-width="12" stroke-linecap="round"/>
  <line x1="261.3" y1="533.3" x2="257.5" y2="534.2" stroke="#CCCCFF" stroke-width="12" stroke-linecap="round"/>
  <line x1="257.5" y1="534.2" x2="253.6" y2="535.1" stroke="#CCCCFF" stroke-width="12" stroke-linecap="round"/>
  <line x1="253.6" y1="535.1" x2="249.6" y2="535.9" stroke="#CCCCFF" stroke-width="12" stroke-linecap="round"/>
  <line x1="249.6" y1="535.9" x2="245.6" y2="536.6" stroke="#CCCCFF" stroke-width="12" stroke-linecap="round"/>
  <line x1="245.6" y1="536.6" x2="241.6" y2="537.3" stroke="#CCCCFF" stroke-width="12" stroke-linecap="round"/>
  <line x1="241.6" y1="537.3" x2="237.5" y2="537.9" stroke="#CCCCFF" stroke-width="12" stroke-linecap="round"/>
  <line x1="237.5" y1="537.9" x2="233.4" y2="538.4" stroke="#CCCCFF" stroke-width="12" stroke-linecap="round"/>
  <line x1="233.4" y1="538.4" x2="229.3" y2="538.8" stroke="#CCCCFF" stroke-width="12" stroke-linecap="round"/>
  <line x1="229.3" y1="538.8" x2="225.2" y2="539.2" stroke="#CCCCFF" stroke-width="12" stroke-linecap="round"/>
  <line x1="225.2" y1="539.2" x2="221.0" y2="539.5" stroke="#CCCCFF" stroke-width="12" stroke-linecap="round"/>
  <line x1="221.0" y1="539.5" x2="216.8" y2="539.7" stroke="#CCCCFF" stroke-width="12" stroke-linecap="round"/>
  <line x1="216.8" y1="539.7" x2="212.6" y2="539.9" stroke="#CCCCFF" stroke-width="12" stroke-linecap="round"/>
  <line x1="212.6" y1="539.9" x2="208.3" y2="540.0" stroke="#CCCCFF" stroke-width="12" stroke-linecap="round"/>
  <line x1="208.3" y1="540.0" x2="204.1" y2="540.0" stroke="#99CCFF" stroke-width="12" stroke-linecap="round"/>
  <line x1="204.1" y1="540.0" x2="199.9" y2="539.9" stroke="#99CCFF" stroke-width="12" stroke-linecap="round"/>
  <line x1="199.9" y1="539.9" x2="195.6" y2="539.8" stroke="#99CCFF" stroke-width="12" stroke-linecap="round"/>
  <line x1="195.6" y1="539.8" x2="191.4" y2="539.6" stroke="#99CCFF" stroke-width="12" stroke-linecap="round"/>
  <line x1="191.4" y1="539.6" x2="187.2" y2="539.4" stroke="#99CCFF" stroke-width="12" stroke-linecap="round"/>
  <line x1="187.2" y1="539.4" x2="183.0" y2="539.0" stroke="#99CCFF" stroke-width="12" stroke-linecap="round"/>
  <line x1="183.0" y1="539.0" x2="178.8" y2="538.6" stroke="#99CCFF" stroke-width="12" stroke-linecap="round"/>
  <line x1="178.8" y1="538.6" x2="174.6" y2="538.1" stroke="#99CCFF" stroke-width="12" stroke-linecap="round"/>
  <line x1="174.6" y1="538.1" x2="170.5" y2="537.6" stroke="#99CCFF" stroke-width="12" stroke-linecap="round"/>
  <line x1="170.5" y1="537.6" x2="166.4" y2="537.0" stroke="#99CCFF" stroke-width="12" stroke-linecap="round"/>
  <line x1="166.4" y1="537.0" x2="162.3" y2="536.3" stroke="#99CCFF" stroke-width="12" stroke-linecap="round"/>
  <line x1="162.3" y1="536.3" x2="158.2" y2="535.5" stroke="#99CCFF" stroke-width="12" stroke-linecap="round"/>
  <circle cx="118.1" cy="308.3" r="28" fill="#333" stroke="#99FFCC" stroke-width="2"/>
  <g transform="translate(95.7,277.5) scale(0.0483)">
    <path d="M500 1000L430 1000L430 512Q430 428 389.5000 382Q349 336 276 336L276 336Q232 336 197 357.5000Q162 379 142 415.5000Q122 452 122 499L122 499Q122 542 141 576Q160 610 192.5000 630Q225 650 265 650L265 650L265 710Q203 710 154.5000 683Q106 656 78.5000 608.5000Q51 561 51 499L51 499Q51 432 79 382Q107 332 158 303.5000Q209 275 276 275L276 275Q350 275 396 308Q442 341 465 413L465 413Q488 341 534.5000 308Q581 275 654 275L654 275Q721 275 771.5000 303.5000Q822 332 850.5000 382Q879 432 879 499L879 499Q879 561 851.5000 608.5000Q824 656 776 683Q728 710 665 710L665 710L665 650Q706 650 738.5000 630Q771 610 789.5000 576Q808 542 808 499L808 499Q808 452 788 415Q768 378 733.5000 357Q699 336 654 336L654 336Q581 336 540.5000 382.5000Q500 429 500 512L500 512L500 1000Z" fill="#99FFCC"/>
  </g>
  <circle cx="178.6" cy="60.0" r="28" fill="#333" stroke="#FFFF99" stroke-width="2"/>
  <g transform="translate(156.2,29.4) scale(0.0476)">
    <path d="M258 682L258 682Q163 682 107 633Q51 584 51 503L51 503Q51 394 152 341L152 341Q256 286 482 286L482 286Q550 286 624 297Q698 308 768 327.5000Q838 347 892 372L892 372L892 442Q803 399 694.5000 376.5000Q586 354 482 354L482 354Q407 354 368 363L368 363Q409 370 437 408Q465 446 465 503L465 503Q465 584 409 633Q353 682 258 682ZM258 618L258 618Q317 618 352.5000 587Q388 556 388 503L388 503Q388 450 352.5000 419Q317 388 258 388L258 388Q197 388 162.5000 419Q128 450 128 503L128 503Q128 556 163.5000 587Q199 618 258 618ZM461 1000L461 1000Q389 1000 311 987.5000Q233 975 164.5000 955Q96 935 51 914L51 914L51 844Q140 885 246 908.5000Q352 932 461 932L461 932Q541 932 575 923L575 923Q535 918 506.5000 879.5000Q478 841 478 783L478 783Q478 703 534.5000 653.5000Q591 604 685 604L685 604Q780 604 836 653Q892 702 892 783L892 783Q892 889 792 944L792 944Q691 1000 461 1000ZM685 898L685 898Q746 898 780.5000 866.5000Q815 835 815 783L815 783Q815 731 781 699.5000Q747 668 685 668L685 668Q624 668 589.5000 699.5000Q555 731 555 783L555 783Q555 835 590 866.5000Q625 898 685 898Z" fill="#FFFF99"/>
  </g>
  <circle cx="264.5" cy="306.2" r="28" fill="#333" stroke="#FF99CC" stroke-width="2"/>
  <g transform="translate(242.0,275.0) scale(0.0478)">
    <path d="M422 767L51 767L51 697L317 697Q280 668 257.5000 622.5000Q235 577 235 533L235 533Q235 469 266 417.5000Q297 366 350.5000 335Q404 304 469 304L469 304Q534 304 587 335Q640 366 671.5000 417.5000Q703 469 703 533L703 533Q703 576 681.5000 621Q660 666 621 697L621 697L887 697L887 767L516 767L516 690Q567 673 600 629Q633 585 633 533L633 533Q633 486 611.5000 449Q590 412 553 390.5000Q516 369 469 369L469 369Q422 369 385 391Q348 413 326.5000 450Q305 487 305 533L305 533Q305 586 338.5000 630Q372 674 422 690L422 690L422 767ZM886 1000L51 1000L51 930L886 930L886 1000Z" fill="#FF99CC"/>
  </g>
  <circle cx="204.1" cy="540.0" r="28" fill="#333" stroke="#99CCFF" stroke-width="2"/>
  <g transform="translate(182.8,507.4) scale(0.0442)">
    <path d="M325 1192L325 1192L325 1137Q392 1137 444.5000 1096Q497 1055 543 961L543 961Q517 921 508 870Q499 819 499 759L499 759L499 483Q499 436 488 405Q477 374 451 337L451 337Q437 350 418 382Q399 414 377 457Q355 500 334.5000 548.5000Q314 597 296.5000 644Q279 691 269 729.5000Q259 768 259 792L259 792L259 1000L189 1000L189 637Q189 574 186 529Q183 484 175 456L175 456Q160 400 129.5000 375Q99 350 51 350L51 350L51 286Q156 286 205.5000 358.5000Q255 431 256 592L256 592L256 595Q265 559 285 511Q305 463 330 416Q355 369 377.5000 333.5000Q400 298 413 286L413 286L501 286Q519 307 534.5000 338.5000Q550 370 559.5000 403Q569 436 569 465L569 465L569 756Q569 855 588 894L588 894Q630 835 671 812.5000Q712 790 761 790L761 790Q831 790 873 825.5000Q915 861 915 923L915 923Q915 992 868.5000 1031Q822 1070 741 1070L741 1070Q698 1070 663.5000 1057.5000Q629 1045 589 1012L589 1012Q550 1097 480 1144.5000Q410 1192 325 1192ZM741 1008L741 1008Q792 1008 821.5000 984.5000Q851 961 851 923L851 923Q851 893 826.5000 871.5000Q802 850 762 850L762 850Q724 850 689 873.5000Q654 897 620 951L620 951Q638 974 673.5000 991Q709 1008 741 1008Z" fill="#99CCFF"/>
  </g>
</svg>
